<?xml version="1.0" encoding="utf-8"?>
<!-- Generator: Adobe Illustrator 26.4.1, SVG Export Plug-In . SVG Version: 6.00 Build 0)  -->
<svg version="1.1" id="Layer_1" xmlns="http://www.w3.org/2000/svg" xmlns:xlink="http://www.w3.org/1999/xlink" x="0px" y="0px"
	 viewBox="0 0 500 1244" style="enable-background:new 0 0 500 1244;" xml:space="preserve">
<style type="text/css">
	.st0{fill:#FFFFFF;fill-opacity:0.92;}
</style>
<g>
	<path class="st0" d="M385,981.8c4.7,4.3,9.5,8.2,14.6,12c6.3-0.7,12.6-1.8,18.8-3.2c-0.2-0.8-0.5-1.6-0.7-2.4
		c-8.1-5-16-10.5-23.5-16.4C391.3,975.3,388.2,978.6,385,981.8z"/>
	<path class="st0" d="M322.4,1140.1c-6.1-3.1-12.3-5.8-18.6-8.2c-2.9,7.3-6.3,14.3-10.1,21.2C302.9,1148,312.4,1143.6,322.4,1140.1z
		"/>
	<path class="st0" d="M415.7,979c-2.1-10.6-3.3-21.4-3.4-32.4c-4.1,7-8.7,13.7-13.7,20C404,971.1,409.8,975.2,415.7,979z"/>
	<path class="st0" d="M332.6,1136.9c0.7-0.2,1.3-0.3,2-0.5c-1.8-5.8-4-11.6-6.5-17.2c-5.9-2.5-11.9-4.8-18-6.7
		c-1.2,4.5-2.5,8.8-4,13.2c8.6,3.4,17.1,7.3,25.2,11.6C331.8,1137.2,332.2,1137,332.6,1136.9z"/>
	<path class="st0" d="M318.3,1099.9c-1.3-2.3-2.7-4.5-4.2-6.7c-0.6,4.3-1.4,8.6-2.4,12.8c4.1,1.3,8.2,2.6,12.2,4.2
		C322.2,1106.7,320.3,1103.3,318.3,1099.9z"/>
	<path class="st0" d="M287.4,1079.5c-7.9,6.9-16.5,13.2-25.7,18.7c8,0.1,15.9,0.7,23.7,1.9C286.3,1093.2,287,1086.4,287.4,1079.5z"
		/>
	<path class="st0" d="M303.7,1110.6c-4.3-1.1-8.6-2.1-12.9-2.9c-0.7,4-1.5,7.9-2.4,11.8c3.9,1.2,7.7,2.4,11.4,3.8
		C301.3,1119.1,302.6,1114.9,303.7,1110.6z"/>
	<path class="st0" d="M311.6,1026.5c0.9,4.1,1.7,8.1,2.4,12.3c3.5-5.3,6.6-10.8,9.5-16.4C319.6,1023.8,315.6,1025.2,311.6,1026.5z"
		/>
	<path class="st0" d="M389.7,994.6c-3.3-2.6-6.4-5.3-9.5-8.1c-3,2.8-6.1,5.5-9.4,8.1C377.1,995,383.4,995,389.7,994.6z"/>
	<path class="st0" d="M438.1,991.9c6.2,3.1,12.5,5.9,18.9,8.4c2.8-7.3,6.3-14.5,10.1-21.5C458,984.1,448.2,988.4,438.1,991.9z"/>
	<path class="st0" d="M303.5,1000.6c6.5-2.6,12.9-5.5,19.2-8.7c-10.2-3.5-20.1-7.8-29.6-13.1C297.1,985.9,300.6,993.1,303.5,1000.6z
		"/>
	<path class="st0" d="M380,959.6c-2.9,2.7-5.8,5.4-8.8,7.9c2.9,3.4,5.9,6.6,9,9.7c3.1-3.1,6-6.3,8.9-9.6
		C386,965.1,383,962.4,380,959.6z"/>
	<path class="st0" d="M375.4,981.9c-3.3-3.2-6.4-6.6-9.4-10.1c-7.3,5.8-14.9,11.2-22.8,16.2c-0.2,0.9-0.4,1.8-0.7,2.7
		c6.1,1.4,12.3,2.4,18.6,3.1C366.1,990.1,370.9,986.1,375.4,981.9z"/>
	<path class="st0" d="M370.9,1137.2c3.4,2.7,6.6,5.4,9.8,8.3c3.2-2.9,6.4-5.7,9.7-8.4C383.9,1136.8,377.4,1136.8,370.9,1137.2z"/>
	<path class="st0" d="M346,1153.7c2,10.2,3,20.5,3.2,30.9c4-6.6,8.4-13,13.1-19.1C357,1161.4,351.5,1157.4,346,1153.7z"/>
	<path class="st0" d="M380.6,1172.5c2.9-2.7,5.9-5.5,9-8.1c-2.9-3.3-5.9-6.5-9-9.6c-3.1,3.2-6.1,6.4-9,9.8
		C374.7,1167.1,377.7,1169.8,380.6,1172.5z"/>
	<path class="st0" d="M375.8,1150.2c-4.7-4.3-9.7-8.4-14.8-12.1c-6,0.7-12,1.7-18,3.1c0.3,1.1,0.6,2.2,0.9,3.4
		c7.8,4.8,15.4,10.1,22.6,15.9C369.4,1156.9,372.6,1153.5,375.8,1150.2z"/>
	<path class="st0" d="M472.3,1012.7c-3.8-1.1-7.6-2.4-11.3-3.8c-1.4,4.2-2.7,8.3-3.8,12.6c4.2,1.1,8.4,2.1,12.7,2.9
		C470.7,1020.5,471.4,1016.6,472.3,1012.7z"/>
	<path class="st0" d="M476.5,1025.5c11.1,1.6,22.5,2.2,34,1.5c-0.7-2.2-1.4-4.4-2.1-6.5c-10-1.4-19.9-3.4-29.6-6
		C477.9,1018.2,477.2,1021.8,476.5,1025.5z"/>
	<path class="st0" d="M499.8,1097.6c-9.4-5.6-18.2-12-26.3-19.1c0.4,7,1.1,14,2.2,21C483.6,1098.4,491.7,1097.7,499.8,1097.6z"/>
	<path class="st0" d="M262.2,1034.5c8.9,5.3,17.3,11.4,25.1,18.1c-0.4-6.8-1.1-13.4-2.1-20.1
		C277.5,1033.7,269.9,1034.3,262.2,1034.5z"/>
	<path class="st0" d="M466.5,1059.2c0.3-9.5,1.1-18.9,2.4-28.3c-4.5-0.8-8.9-1.8-13.3-3c-1.3,6-2.3,12.1-3,18.2
		c3.8,5.1,7.9,10,12.2,14.7C465.4,1060.3,465.9,1059.8,466.5,1059.2z"/>
	<path class="st0" d="M457.4,1131.4c-6.4,2.5-12.7,5.4-18.8,8.4c9.9,3.4,19.6,7.6,28.8,12.7C463.6,1145.6,460.2,1138.6,457.4,1131.4
		z"/>
	<path class="st0" d="M385.4,1150.2c3.2,3.2,6.3,6.5,9.3,10c7.4-5.9,15.2-11.5,23.3-16.5c0.2-0.8,0.4-1.7,0.7-2.6
		c-6.1-1.4-12.4-2.4-18.7-3.1C394.9,1141.8,390.1,1145.9,385.4,1150.2z"/>
	<path class="st0" d="M308.4,1085.1c-3.7-5-7.7-9.8-11.9-14.2c-0.8,0.8-1.5,1.6-2.3,2.3c-0.2,9.4-1,18.8-2.4,28
		c4.5,0.8,9,1.8,13.4,3.1C306.7,1097.9,307.7,1091.5,308.4,1085.1z"/>
	<path class="st0" d="M447,1093.6c-3.4,5.2-6.4,10.5-9.2,16.1c3.8-1.5,7.7-2.8,11.6-4.1C448.5,1101.6,447.7,1097.6,447,1093.6z"/>
	<path class="st0" d="M455,1125.1c-1.5-4.3-2.9-8.7-4.1-13.1c-5.9,1.9-11.7,4-17.4,6.5c-2.5,5.8-4.7,11.7-6.6,17.8
		c0.9,0.2,1.7,0.4,2.6,0.7C437.8,1132.6,446.3,1128.6,455,1125.1z"/>
	<path class="st0" d="M334.2,995.5c-0.9-0.2-1.7-0.5-2.6-0.7c-8.3,4.5-16.9,8.6-25.8,12.1c1.5,4.3,2.9,8.7,4.1,13.1
		c6-1.9,12-4.1,17.7-6.6C330.2,1007.5,332.4,1001.6,334.2,995.5z"/>
	<path class="st0" d="M412.7,1185.2c0.1-10.9,1.2-21.7,3.3-32.3c-5.9,3.9-11.6,8-17,12.4C404,1171.6,408.6,1178.2,412.7,1185.2z"/>
	<path class="st0" d="M287.7,1063.8c0-0.6,0-1.3,0-1.9c-11.5-10.7-24.4-19.7-38.4-26.9c-4.8,20-5,41.3,0,62.4
		c14.2-7.4,27.1-16.6,38.5-27.2C287.7,1068.1,287.7,1065.9,287.7,1063.8z"/>
	<path class="st0" d="M385.4,1177.1c7.1,7,13.8,14.5,20,22.4c2.3-0.4,4.6-0.9,6.8-1.4c-5.2-10.2-11.3-19.8-18.3-28.5
		C391,1172,388.2,1174.5,385.4,1177.1z"/>
	<path class="st0" d="M330.6,1144.5c-15.1,4.7-29.6,11.5-42.8,20.1c15.5,14.6,34.2,25.4,54.5,31.5c0.8-16-0.6-31.8-4.2-47.3
		C335.6,1147.3,333.1,1145.8,330.6,1144.5z"/>
	<path class="st0" d="M363.6,1200.7c11.2,1.4,22.6,1.5,34.1,0c-5.4-6.7-11.1-13-17.2-18.9C374.6,1187.7,369,1194,363.6,1200.7z"/>
	<path class="st0" d="M286.9,1126c-2.5,9.5-5.6,18.8-9.2,27.9c1.5,1.8,3.1,3.6,4.7,5.3c6-9.4,11.2-19.3,15.2-29.6
		C294,1128.2,290.5,1127.1,286.9,1126z"/>
	<path class="st0" d="M284.2,1106.6c-10.8-1.6-21.9-2.1-33-1.6c0.7,2.3,1.4,4.6,2.2,6.8c9.7,1.4,19.2,3.3,28.6,5.8
		C282.8,1114,283.6,1110.3,284.2,1106.6z"/>
	<path class="st0" d="M256.2,1118.9c4.4,10.5,10,20.2,16.7,28.9c2.9-7.8,5.5-15.7,7.6-23.7C272.5,1121.9,264.4,1120.2,256.2,1118.9z
		"/>
	<path class="st0" d="M367.4,1169.8c-6.9,8.7-12.9,18.2-18.1,28.3c2.2,0.5,4.5,1,6.8,1.4c6.1-7.8,12.6-15.3,19.6-22.3
		C373.1,1174.6,370.3,1172.1,367.4,1169.8z"/>
	<path class="st0" d="M423.9,1148c-3.6,15.5-5.1,31.7-4.2,48.1c21.2-6.3,39.7-17.3,54.6-31.6c-13.7-8.8-28.5-15.6-43.9-20.2
		C428.2,1145.4,426,1146.7,423.9,1148z"/>
	<path class="st0" d="M512.5,1034.2c-14.6,7.5-27.9,17-39.4,28c0,2.4,0,4.7,0,7.1c11.7,11,25,20.4,39.8,27.9
		C517.6,1077,517.7,1055.5,512.5,1034.2z"/>
	<path class="st0" d="M488.7,1148.4c7.1-9.3,12.9-19.5,17.4-30.2c-8.6,1.3-17.1,3.1-25.5,5.4C482.8,1132,485.5,1140.2,488.7,1148.4z
		"/>
	<path class="st0" d="M476.7,1106.1c0.7,3.7,1.4,7.3,2.3,11c9.8-2.7,19.8-4.7,29.8-6.1c0.7-2.1,1.4-4.3,2.1-6.5
		C499.4,1103.9,488,1104.5,476.7,1106.1z"/>
	<path class="st0" d="M470.1,1107.3c-4.3,0.8-8.5,1.8-12.7,2.9c1.1,4.2,2.4,8.4,3.9,12.6c3.7-1.3,7.5-2.6,11.3-3.8
		C471.6,1115.1,470.8,1111.2,470.1,1107.3z"/>
	<path class="st0" d="M463.6,1129c4.2,10.5,9.4,20.7,15.7,30.3c1.5-1.6,3.1-3.3,4.5-5c-3.9-9.5-7.1-19.1-9.7-28.9
		C470.6,1126.6,467.1,1127.7,463.6,1129z"/>
	<path class="st0" d="M469.1,1100.7c-1.4-9.5-2.3-19-2.5-28.5c-0.5-0.5-1.1-1.1-1.7-1.6c-4.4,4.7-8.4,9.7-12.2,14.9
		c0.7,6.1,1.8,12.3,3.2,18.3C460.2,1102.5,464.6,1101.5,469.1,1100.7z"/>
	<path class="st0" d="M375.2,955c-6.9-6.8-13.4-14.1-19.4-21.8c-2.3,0.4-4.6,0.9-6.8,1.5c5.1,9.9,11.1,19.2,17.9,27.8
		C369.7,960.1,372.5,957.5,375.2,955z"/>
	<path class="st0" d="M473.9,1006.2c2.5-9.7,5.7-19.2,9.5-28.6c-1.5-1.7-3-3.4-4.6-5c-6.2,9.6-11.4,19.7-15.5,30.1
		C466.8,1003.9,470.4,1005.1,473.9,1006.2z"/>
	<path class="st0" d="M429.9,987.6c15.4-4.7,30.1-11.5,43.5-20.2c-15.5-14.4-34.1-25-54.3-31c-0.8,16.3,0.8,32.2,4.5,47.6
		C425.7,985.2,427.8,986.4,429.9,987.6z"/>
	<path class="st0" d="M505.6,1013.4c-4.6-10.8-10.5-20.8-17.4-29.8c-3.1,8-5.7,16.2-7.8,24.5C488.6,1010.3,497,1012.1,505.6,1013.4z
		"/>
	<path class="st0" d="M284.1,1026c-0.7-3.7-1.4-7.3-2.2-11c-9.4,2.6-18.9,4.6-28.4,6c-0.8,2.2-1.5,4.5-2.2,6.7
		C262.2,1028.1,273.2,1027.6,284.1,1026z"/>
	<path class="st0" d="M473.4,1052.8c7.9-7,16.6-13.3,25.8-18.9c-8-0.1-15.9-0.7-23.8-1.9C474.4,1038.9,473.7,1045.9,473.4,1052.8z"
		/>
	<path class="st0" d="M396.8,931.8c-11-1.3-22.2-1.2-33.4,0.2c5.3,6.4,10.8,12.6,16.7,18.4C385.9,944.5,391.5,938.3,396.8,931.8z"/>
	<path class="st0" d="M437.8,1022.2c2.8,5.5,5.8,10.8,9.2,15.9c0.6-4,1.3-8,2.2-12C445.4,1024.9,441.5,1023.6,437.8,1022.2z"/>
	<path class="st0" d="M393.3,962.5c6.9-8.7,12.9-18.2,18.1-28.2c-2.3-0.5-4.7-1-7-1.4c-6.1,7.8-12.5,15.2-19.5,22.1
		C387.6,957.5,390.4,960.1,393.3,962.5z"/>
	<path class="st0" d="M297.3,1003c-4.1-10.2-9.2-20-15.2-29.4c-1.6,1.7-3.2,3.5-4.7,5.3c3.7,9,6.7,18.2,9.2,27.7
		C290.2,1005.5,293.8,1004.3,297.3,1003z"/>
	<path class="st0" d="M308.3,1046.8c-0.7-6.3-1.8-12.4-3.2-18.5c-4.5,1.2-8.9,2.2-13.4,3.1c1.4,9,2.2,18.2,2.5,27.5
		c0.8,0.7,1.6,1.5,2.3,2.2C300.8,1056.6,304.7,1051.8,308.3,1046.8z"/>
	<path class="st0" d="M272.6,985c-6.6,8.8-12.2,18.5-16.5,28.7c8.1-1.3,16.1-3.1,24.1-5.2C278.1,1000.5,275.6,992.7,272.6,985z"/>
	<path class="st0" d="M337.5,983.7c3.6-15.2,5-31,4.2-47c-20.8,6.3-39,17.2-53.8,31.2c13.4,8.5,27.9,15.1,43,19.7
		C333.1,986.3,335.3,985.1,337.5,983.7z"/>
	<path class="st0" d="M348.6,947.6c-0.2,10.5-1.3,20.9-3.3,31.1c5.7-3.8,11.2-7.8,16.5-12C357,960.7,352.6,954.3,348.6,947.6z"/>
	<path class="st0" d="M290.6,1024.9c4.4-0.8,8.7-1.8,13-3c-1.1-4.3-2.5-8.4-3.9-12.6c-3.8,1.4-7.6,2.6-11.5,3.8
		C289.1,1017,289.9,1020.9,290.6,1024.9z"/>
	<path class="st0" d="M428.7,994.9c-0.6,0.2-1.3,0.3-1.9,0.5c1.9,6.1,4.2,12.1,6.8,17.9c5.6,2.4,11.4,4.6,17.3,6.4
		c1.1-4.4,2.5-8.7,4-13c-8.8-3.4-17.4-7.4-25.6-11.8C429,994.8,428.9,994.9,428.7,994.9z"/>
</g>
<g>
	<path class="st0" d="M116.5,814.4c4.7,4.3,9.5,8.2,14.6,12c6.3-0.7,12.6-1.8,18.8-3.2c-0.2-0.8-0.5-1.6-0.7-2.4
		c-8.1-5-16-10.5-23.5-16.4C122.8,807.9,119.7,811.2,116.5,814.4z"/>
	<path class="st0" d="M53.8,972.7c-6.1-3.1-12.3-5.8-18.6-8.2c-2.9,7.3-6.3,14.3-10.1,21.2C34.3,980.5,43.9,976.1,53.8,972.7z"/>
	<path class="st0" d="M147.1,811.6c-2.1-10.6-3.3-21.4-3.4-32.4c-4.1,7-8.7,13.7-13.7,20C135.5,803.6,141.2,807.7,147.1,811.6z"/>
	<path class="st0" d="M64.1,969.4c0.7-0.2,1.3-0.3,2-0.5c-1.8-5.8-4-11.6-6.5-17.2c-5.9-2.5-11.9-4.8-18-6.7
		c-1.2,4.5-2.5,8.8-4,13.2c8.6,3.4,17.1,7.3,25.2,11.6C63.2,969.7,63.6,969.6,64.1,969.4z"/>
	<path class="st0" d="M49.8,932.4c-1.3-2.3-2.7-4.5-4.2-6.7c-0.6,4.3-1.4,8.6-2.4,12.8c4.1,1.3,8.2,2.6,12.2,4.2
		C53.6,939.3,51.8,935.8,49.8,932.4z"/>
	<path class="st0" d="M18.8,912c-7.9,6.9-16.5,13.2-25.7,18.7c8,0.1,15.9,0.7,23.7,1.9C17.7,925.8,18.4,918.9,18.8,912z"/>
	<path class="st0" d="M35.2,943.2c-4.3-1.1-8.6-2.1-12.9-2.9c-0.7,4-1.5,7.9-2.4,11.8c3.9,1.2,7.7,2.4,11.4,3.8
		C32.8,951.7,34.1,947.4,35.2,943.2z"/>
	<path class="st0" d="M43.1,859c0.9,4.1,1.7,8.1,2.4,12.3c3.5-5.3,6.6-10.8,9.5-16.4C51,856.4,47,857.8,43.1,859z"/>
	<path class="st0" d="M121.2,827.2c-3.3-2.6-6.4-5.3-9.5-8.1c-3,2.8-6.1,5.5-9.4,8.1C108.6,827.5,114.9,827.5,121.2,827.2z"/>
	<path class="st0" d="M169.6,824.5c6.2,3.1,12.5,5.9,18.9,8.4c2.8-7.3,6.3-14.5,10.1-21.5C189.4,816.6,179.7,821,169.6,824.5z"/>
	<path class="st0" d="M35,833.2c6.5-2.6,12.9-5.5,19.2-8.7c-10.2-3.5-20.1-7.8-29.6-13.1C28.6,818.4,32,825.7,35,833.2z"/>
	<path class="st0" d="M111.5,792.2c-2.9,2.7-5.8,5.4-8.8,7.9c2.9,3.4,5.9,6.6,9,9.7c3.1-3.1,6-6.3,8.9-9.6
		C117.5,797.6,114.5,794.9,111.5,792.2z"/>
	<path class="st0" d="M106.9,814.4c-3.3-3.2-6.4-6.6-9.4-10.1c-7.3,5.8-14.9,11.2-22.8,16.2c-0.2,0.9-0.4,1.8-0.7,2.7
		c6.1,1.4,12.3,2.4,18.6,3.1C97.6,822.6,102.3,818.6,106.9,814.4z"/>
	<path class="st0" d="M102.3,969.7c3.4,2.7,6.6,5.4,9.8,8.3c3.2-2.9,6.4-5.7,9.7-8.4C115.3,969.4,108.8,969.4,102.3,969.7z"/>
	<path class="st0" d="M77.4,986.3c2,10.2,3,20.5,3.2,30.9c4-6.6,8.4-13,13.1-19.1C88.4,993.9,83,989.9,77.4,986.3z"/>
	<path class="st0" d="M112.1,1005c2.9-2.7,5.9-5.5,9-8.1c-2.9-3.3-5.9-6.5-9-9.6c-3.1,3.2-6.1,6.4-9,9.8
		C106.1,999.7,109.1,1002.3,112.1,1005z"/>
	<path class="st0" d="M107.3,982.8c-4.7-4.3-9.7-8.4-14.8-12.1c-6,0.7-12,1.7-18,3.1c0.3,1.1,0.6,2.2,0.9,3.4
		c7.8,4.8,15.4,10.1,22.6,15.9C100.9,989.4,104.1,986,107.3,982.8z"/>
	<path class="st0" d="M203.8,845.2c-3.8-1.1-7.6-2.4-11.3-3.8c-1.4,4.2-2.7,8.3-3.8,12.6c4.2,1.1,8.4,2.1,12.7,2.9
		C202.1,853,202.9,849.1,203.8,845.2z"/>
	<path class="st0" d="M208,858c11.1,1.6,22.5,2.2,34,1.5c-0.7-2.2-1.4-4.4-2.1-6.5c-10-1.4-19.9-3.4-29.6-6
		C209.4,850.7,208.7,854.3,208,858z"/>
	<path class="st0" d="M231.2,930.1c-9.4-5.6-18.2-12-26.3-19.1c0.4,7,1.1,14,2.2,21C215.1,930.9,223.1,930.2,231.2,930.1z"/>
	<path class="st0" d="M-6.4,867c8.9,5.3,17.3,11.4,25.1,18.1c-0.4-6.8-1.1-13.4-2.1-20.1C9,866.2,1.3,866.8-6.4,867z"/>
	<path class="st0" d="M197.9,891.8c0.3-9.5,1.1-18.9,2.4-28.3c-4.5-0.8-8.9-1.8-13.3-3c-1.3,6-2.3,12.1-3,18.2
		c3.8,5.1,7.9,10,12.2,14.7C196.8,892.9,197.4,892.3,197.9,891.8z"/>
	<path class="st0" d="M188.8,963.9c-6.4,2.5-12.7,5.4-18.8,8.4c9.9,3.4,19.6,7.6,28.8,12.7C195,978.2,191.7,971.1,188.8,963.9z"/>
	<path class="st0" d="M116.9,982.7c3.2,3.2,6.3,6.5,9.3,10c7.4-5.9,15.2-11.5,23.3-16.5c0.2-0.8,0.4-1.7,0.7-2.6
		c-6.1-1.4-12.4-2.4-18.7-3.1C126.4,974.3,121.5,978.4,116.9,982.7z"/>
	<path class="st0" d="M39.9,917.6c-3.7-5-7.7-9.8-11.9-14.2c-0.8,0.8-1.5,1.6-2.3,2.3c-0.2,9.4-1,18.8-2.4,28
		c4.5,0.8,9,1.8,13.4,3.1C38.2,930.4,39.2,924.1,39.9,917.6z"/>
	<path class="st0" d="M178.5,926.1c-3.4,5.2-6.4,10.5-9.2,16.1c3.8-1.5,7.7-2.8,11.6-4.1C179.9,934.1,179.1,930.1,178.5,926.1z"/>
	<path class="st0" d="M186.5,957.7c-1.5-4.3-2.9-8.7-4.1-13.1c-5.9,1.9-11.7,4-17.4,6.5c-2.5,5.8-4.7,11.7-6.6,17.8
		c0.9,0.2,1.7,0.4,2.6,0.7C169.3,965.1,177.8,961.1,186.5,957.7z"/>
	<path class="st0" d="M65.7,828c-0.9-0.2-1.7-0.5-2.6-0.7c-8.3,4.5-16.9,8.6-25.8,12.1c1.5,4.3,2.9,8.7,4.1,13.1
		c6-1.9,12-4.1,17.7-6.6C61.6,840.1,63.8,834.1,65.7,828z"/>
	<path class="st0" d="M144.2,1017.7c0.1-10.9,1.2-21.7,3.3-32.3c-5.9,3.9-11.6,8-17,12.4C135.5,1004.1,140.1,1010.8,144.2,1017.7z"
		/>
	<path class="st0" d="M19.2,896.3c0-0.6,0-1.3,0-1.9c-11.5-10.7-24.4-19.7-38.4-26.9c-4.8,20-5,41.3,0,62.4
		c14.2-7.4,27.1-16.6,38.5-27.2C19.2,900.6,19.2,898.4,19.2,896.3z"/>
	<path class="st0" d="M116.9,1009.7c7.1,7,13.8,14.5,20,22.4c2.3-0.4,4.6-0.9,6.8-1.4c-5.2-10.2-11.3-19.8-18.3-28.5
		C122.5,1004.5,119.6,1007,116.9,1009.7z"/>
	<path class="st0" d="M62,977c-15.1,4.7-29.6,11.5-42.8,20.1c15.5,14.6,34.2,25.4,54.5,31.5c0.8-16-0.6-31.8-4.2-47.3
		C67.1,979.8,64.5,978.4,62,977z"/>
	<path class="st0" d="M95.1,1033.2c11.2,1.4,22.6,1.5,34.1,0c-5.4-6.7-11.1-13-17.2-18.9C106.1,1020.3,100.4,1026.6,95.1,1033.2z"/>
	<path class="st0" d="M18.3,958.5c-2.5,9.5-5.6,18.8-9.2,27.9c1.5,1.8,3.1,3.6,4.7,5.3c6-9.4,11.2-19.3,15.2-29.6
		C25.5,960.8,21.9,959.6,18.3,958.5z"/>
	<path class="st0" d="M15.7,939.1c-10.8-1.6-21.9-2.1-33-1.6c0.7,2.3,1.4,4.6,2.2,6.8c9.7,1.4,19.2,3.3,28.6,5.8
		C14.3,946.5,15,942.9,15.7,939.1z"/>
	<path class="st0" d="M-12.4,951.5c4.4,10.5,10,20.2,16.7,28.9c2.9-7.8,5.5-15.7,7.6-23.7C3.9,954.5-4.1,952.8-12.4,951.5z"/>
	<path class="st0" d="M98.9,1002.3c-6.9,8.7-12.9,18.2-18.1,28.3c2.2,0.5,4.5,1,6.8,1.4c6.1-7.8,12.6-15.3,19.6-22.3
		C104.5,1007.2,101.7,1004.7,98.9,1002.3z"/>
	<path class="st0" d="M155.3,980.5c-3.6,15.5-5.1,31.7-4.2,48.1c21.2-6.3,39.7-17.3,54.6-31.6c-13.7-8.8-28.5-15.6-43.9-20.2
		C159.7,977.9,157.5,979.2,155.3,980.5z"/>
	<path class="st0" d="M244,866.7c-14.6,7.5-27.9,17-39.4,28c0,2.4,0,4.7,0,7.1c11.7,11,25,20.4,39.8,27.9
		C249,909.6,249.2,888.1,244,866.7z"/>
	<path class="st0" d="M220.1,980.9c7.1-9.3,12.9-19.5,17.4-30.2c-8.6,1.3-17.1,3.1-25.5,5.4C214.2,964.5,216.9,972.8,220.1,980.9z"
		/>
	<path class="st0" d="M208.2,938.7c0.7,3.7,1.4,7.3,2.3,11c9.8-2.7,19.8-4.7,29.8-6.1c0.7-2.1,1.4-4.3,2.1-6.5
		C230.9,936.5,219.4,937,208.2,938.7z"/>
	<path class="st0" d="M201.6,939.8c-4.3,0.8-8.5,1.8-12.7,2.9c1.1,4.2,2.4,8.4,3.9,12.6c3.7-1.3,7.5-2.6,11.3-3.8
		C203.1,947.6,202.3,943.7,201.6,939.8z"/>
	<path class="st0" d="M195.1,961.5c4.2,10.5,9.4,20.7,15.7,30.3c1.5-1.6,3.1-3.3,4.5-5c-3.9-9.5-7.1-19.1-9.7-28.9
		C202,959.1,198.6,960.3,195.1,961.5z"/>
	<path class="st0" d="M200.5,933.2c-1.4-9.5-2.3-19-2.5-28.5c-0.5-0.5-1.1-1.1-1.7-1.6c-4.4,4.7-8.4,9.7-12.2,14.9
		c0.7,6.1,1.8,12.3,3.2,18.3C191.6,935.1,196.1,934,200.5,933.2z"/>
	<path class="st0" d="M106.7,787.5c-6.9-6.8-13.4-14.1-19.4-21.8c-2.3,0.4-4.6,0.9-6.8,1.5c5.1,9.9,11.1,19.2,17.9,27.8
		C101.2,792.6,104,790.1,106.7,787.5z"/>
	<path class="st0" d="M205.4,838.8c2.5-9.7,5.7-19.2,9.5-28.6c-1.5-1.7-3-3.4-4.6-5c-6.2,9.6-11.4,19.7-15.5,30.1
		C198.3,836.5,201.8,837.6,205.4,838.8z"/>
	<path class="st0" d="M161.4,820.1c15.4-4.7,30.1-11.5,43.5-20.2c-15.5-14.4-34.1-25-54.3-31c-0.8,16.3,0.8,32.2,4.5,47.6
		C157.1,817.7,159.2,819,161.4,820.1z"/>
	<path class="st0" d="M237,845.9c-4.6-10.8-10.5-20.8-17.4-29.8c-3.1,8-5.7,16.2-7.8,24.5C220.1,842.8,228.5,844.6,237,845.9z"/>
	<path class="st0" d="M15.5,858.5c-0.7-3.7-1.4-7.3-2.2-11c-9.4,2.6-18.9,4.6-28.4,6c-0.8,2.2-1.5,4.5-2.2,6.7
		C-6.4,860.7,4.6,860.1,15.5,858.5z"/>
	<path class="st0" d="M204.8,885.3c7.9-7,16.6-13.3,25.8-18.9c-8-0.1-15.9-0.7-23.8-1.9C205.9,871.5,205.2,878.4,204.8,885.3z"/>
	<path class="st0" d="M128.2,764.3c-11-1.3-22.2-1.2-33.4,0.2c5.3,6.4,10.8,12.6,16.7,18.4C117.4,777.1,123,770.8,128.2,764.3z"/>
	<path class="st0" d="M169.2,854.7c2.8,5.5,5.8,10.8,9.2,15.9c0.6-4,1.3-8,2.2-12C176.8,857.5,173,856.2,169.2,854.7z"/>
	<path class="st0" d="M124.8,795c6.9-8.7,12.9-18.2,18.1-28.2c-2.3-0.5-4.7-1-7-1.4c-6.1,7.8-12.5,15.2-19.5,22.1
		C119.1,790.1,121.9,792.6,124.8,795z"/>
	<path class="st0" d="M28.8,835.6c-4.1-10.2-9.2-20-15.2-29.4c-1.6,1.7-3.2,3.5-4.7,5.3c3.7,9,6.7,18.2,9.2,27.7
		C21.7,838.1,25.3,836.8,28.8,835.6z"/>
	<path class="st0" d="M39.8,879.4c-0.7-6.3-1.8-12.4-3.2-18.5c-4.5,1.2-8.9,2.2-13.4,3.1c1.4,9,2.2,18.2,2.5,27.5
		c0.8,0.7,1.6,1.5,2.3,2.2C32.2,889.2,36.1,884.4,39.8,879.4z"/>
	<path class="st0" d="M4.1,817.6c-6.6,8.8-12.2,18.5-16.5,28.7c8.1-1.3,16.1-3,24.1-5.2C9.6,833.1,7,825.2,4.1,817.6z"/>
	<path class="st0" d="M68.9,816.3c3.6-15.2,5-31,4.2-47c-20.8,6.3-39,17.2-53.8,31.2c13.4,8.5,27.9,15.1,43,19.7
		C64.5,818.9,66.7,817.6,68.9,816.3z"/>
	<path class="st0" d="M80,780.2c-0.2,10.5-1.3,20.9-3.3,31.1c5.7-3.8,11.2-7.8,16.5-12C88.4,793.2,84,786.8,80,780.2z"/>
	<path class="st0" d="M22.1,857.4c4.4-0.8,8.7-1.8,13-3c-1.1-4.3-2.5-8.4-3.9-12.6c-3.8,1.4-7.6,2.6-11.5,3.8
		C20.6,849.5,21.4,853.4,22.1,857.4z"/>
	<path class="st0" d="M160.2,827.4c-0.6,0.2-1.3,0.3-1.9,0.5c1.9,6.1,4.2,12.1,6.8,17.9c5.6,2.4,11.4,4.6,17.3,6.4
		c1.1-4.4,2.5-8.7,4-13c-8.8-3.4-17.4-7.4-25.6-11.8C160.5,827.3,160.3,827.4,160.2,827.4z"/>
</g>
<g>
	<path class="st0" d="M394.1,546.9c4.7,4.3,9.5,8.2,14.6,12c6.3-0.7,12.6-1.8,18.8-3.2c-0.2-0.8-0.5-1.6-0.7-2.4
		c-8.1-5-16-10.5-23.5-16.4C400.4,540.4,397.3,543.7,394.1,546.9z"/>
	<path class="st0" d="M331.5,705.2c-6.1-3.1-12.3-5.8-18.6-8.2c-2.9,7.3-6.3,14.3-10.1,21.2C311.9,713,321.5,708.6,331.5,705.2z"/>
	<path class="st0" d="M424.7,544.1c-2.1-10.6-3.3-21.4-3.4-32.4c-4.1,7-8.7,13.7-13.7,20C413.1,536.1,418.8,540.2,424.7,544.1z"/>
	<path class="st0" d="M341.7,701.9c0.7-0.2,1.3-0.3,2-0.5c-1.8-5.8-4-11.6-6.5-17.2c-5.9-2.5-11.9-4.8-18-6.7
		c-1.2,4.5-2.5,8.8-4,13.2c8.6,3.4,17.1,7.3,25.2,11.6C340.8,702.2,341.2,702.1,341.7,701.9z"/>
	<path class="st0" d="M327.4,664.9c-1.3-2.3-2.7-4.5-4.2-6.7c-0.6,4.3-1.4,8.6-2.4,12.8c4.1,1.3,8.2,2.6,12.2,4.2
		C331.2,671.8,329.4,668.3,327.4,664.9z"/>
	<path class="st0" d="M296.4,644.5c-7.9,6.9-16.5,13.2-25.7,18.7c8,0.1,15.9,0.7,23.7,1.9C295.4,658.3,296,651.4,296.4,644.5z"/>
	<path class="st0" d="M312.8,675.7c-4.3-1.1-8.6-2.1-12.9-2.9c-0.7,4-1.5,7.9-2.4,11.8c3.9,1.2,7.7,2.4,11.4,3.8
		C310.4,684.2,311.7,679.9,312.8,675.7z"/>
	<path class="st0" d="M320.7,591.5c0.9,4.1,1.7,8.1,2.4,12.3c3.5-5.3,6.6-10.8,9.5-16.4C328.6,588.9,324.7,590.3,320.7,591.5z"/>
	<path class="st0" d="M398.8,559.7c-3.3-2.6-6.4-5.3-9.5-8.1c-3,2.8-6.1,5.5-9.4,8.1C386.2,560,392.5,560,398.8,559.7z"/>
	<path class="st0" d="M447.2,557c6.2,3.1,12.5,5.9,18.9,8.4c2.8-7.3,6.3-14.5,10.1-21.5C467,549.1,457.3,553.5,447.2,557z"/>
	<path class="st0" d="M312.6,565.7c6.5-2.6,12.9-5.5,19.2-8.7c-10.2-3.5-20.1-7.8-29.6-13.1C306.2,550.9,309.6,558.2,312.6,565.7z"
		/>
	<path class="st0" d="M389.1,524.7c-2.9,2.7-5.8,5.4-8.8,7.9c2.9,3.4,5.9,6.6,9,9.7c3.1-3.1,6-6.3,8.9-9.6
		C395.1,530.1,392.1,527.4,389.1,524.7z"/>
	<path class="st0" d="M384.5,546.9c-3.3-3.2-6.4-6.6-9.4-10.1c-7.3,5.8-14.9,11.2-22.8,16.2c-0.2,0.9-0.4,1.8-0.7,2.7
		c6.1,1.4,12.3,2.4,18.6,3.1C375.2,555.1,380,551.1,384.5,546.9z"/>
	<path class="st0" d="M379.9,702.2c3.4,2.7,6.6,5.4,9.8,8.3c3.2-2.9,6.4-5.7,9.7-8.4C392.9,701.9,386.4,701.9,379.9,702.2z"/>
	<path class="st0" d="M355,718.8c2,10.2,3,20.5,3.2,30.9c4-6.6,8.4-13,13.1-19.1C366,726.4,360.6,722.4,355,718.8z"/>
	<path class="st0" d="M389.7,737.5c2.9-2.7,5.9-5.5,9-8.1c-2.9-3.3-5.9-6.5-9-9.6c-3.1,3.2-6.1,6.4-9,9.8
		C383.7,732.2,386.8,734.8,389.7,737.5z"/>
	<path class="st0" d="M384.9,715.3c-4.7-4.3-9.7-8.4-14.8-12.1c-6,0.7-12,1.7-18,3.1c0.3,1.1,0.6,2.2,0.9,3.4
		c7.8,4.8,15.4,10.1,22.6,15.9C378.5,721.9,381.7,718.5,384.9,715.3z"/>
	<path class="st0" d="M481.4,577.7c-3.8-1.1-7.6-2.4-11.3-3.8c-1.4,4.2-2.7,8.3-3.8,12.6c4.2,1.1,8.4,2.1,12.7,2.9
		C479.7,585.5,480.5,581.6,481.4,577.7z"/>
	<path class="st0" d="M485.6,590.5c11.1,1.6,22.5,2.2,34,1.5c-0.7-2.2-1.4-4.4-2.1-6.5c-10-1.4-19.9-3.4-29.6-6
		C487,583.2,486.3,586.8,485.6,590.5z"/>
	<path class="st0" d="M508.8,662.6c-9.4-5.6-18.2-12-26.3-19.1c0.4,7,1.1,14,2.2,21C492.7,663.4,500.7,662.7,508.8,662.6z"/>
	<path class="st0" d="M271.2,599.5c8.9,5.3,17.3,11.4,25.1,18.1c-0.4-6.8-1.1-13.4-2.1-20.1C286.6,598.7,278.9,599.3,271.2,599.5z"
		/>
	<path class="st0" d="M475.5,624.3c0.3-9.5,1.1-18.9,2.4-28.3c-4.5-0.8-8.9-1.8-13.3-3c-1.3,6-2.3,12.1-3,18.2
		c3.8,5.1,7.9,10,12.2,14.7C474.4,625.4,475,624.8,475.5,624.3z"/>
	<path class="st0" d="M466.5,696.4c-6.4,2.5-12.7,5.4-18.8,8.4c9.9,3.4,19.6,7.6,28.8,12.7C472.7,710.7,469.3,703.6,466.5,696.4z"/>
	<path class="st0" d="M394.5,715.2c3.2,3.2,6.3,6.5,9.3,10c7.4-5.9,15.2-11.5,23.3-16.5c0.2-0.8,0.4-1.7,0.7-2.6
		c-6.1-1.4-12.4-2.4-18.7-3.1C404,706.8,399.1,710.9,394.5,715.2z"/>
	<path class="st0" d="M317.5,650.1c-3.7-5-7.7-9.8-11.9-14.2c-0.8,0.8-1.5,1.6-2.3,2.3c-0.2,9.4-1,18.8-2.4,28
		c4.5,0.8,9,1.8,13.4,3.1C315.8,662.9,316.8,656.6,317.5,650.1z"/>
	<path class="st0" d="M456.1,658.6c-3.4,5.2-6.4,10.5-9.2,16.1c3.8-1.5,7.7-2.8,11.6-4.1C457.5,666.6,456.7,662.6,456.1,658.6z"/>
	<path class="st0" d="M464.1,690.2c-1.5-4.3-2.9-8.7-4.1-13.1c-5.9,1.9-11.7,4-17.4,6.5c-2.5,5.8-4.7,11.7-6.6,17.8
		c0.9,0.2,1.7,0.4,2.6,0.7C446.9,697.6,455.4,693.6,464.1,690.2z"/>
	<path class="st0" d="M343.3,560.5c-0.9-0.2-1.7-0.5-2.6-0.7c-8.3,4.5-16.9,8.6-25.8,12.1c1.5,4.3,2.9,8.7,4.1,13.1
		c6-1.9,12-4.1,17.7-6.6C339.3,572.6,341.4,566.6,343.3,560.5z"/>
	<path class="st0" d="M421.8,750.2c0.1-10.9,1.2-21.7,3.3-32.3c-5.9,3.9-11.6,8-17,12.4C413.1,736.6,417.7,743.3,421.8,750.2z"/>
	<path class="st0" d="M296.8,628.8c0-0.6,0-1.3,0-1.9c-11.5-10.7-24.4-19.7-38.4-26.9c-4.8,20-5,41.3,0,62.4
		c14.2-7.4,27.1-16.6,38.5-27.2C296.8,633.1,296.8,630.9,296.8,628.8z"/>
	<path class="st0" d="M394.5,742.2c7.1,7,13.8,14.5,20,22.4c2.3-0.4,4.6-0.9,6.8-1.4c-5.2-10.2-11.3-19.8-18.3-28.5
		C400.1,737,397.2,739.5,394.5,742.2z"/>
	<path class="st0" d="M339.6,709.5c-15.1,4.7-29.6,11.5-42.8,20.1c15.5,14.6,34.2,25.4,54.5,31.5c0.8-16-0.6-31.8-4.2-47.3
		C344.7,712.3,342.1,710.9,339.6,709.5z"/>
	<path class="st0" d="M372.7,765.7c11.2,1.4,22.6,1.5,34.1,0c-5.4-6.7-11.1-13-17.2-18.9C383.7,752.8,378,759.1,372.7,765.7z"/>
	<path class="st0" d="M295.9,691c-2.5,9.5-5.6,18.8-9.2,27.9c1.5,1.8,3.1,3.6,4.7,5.3c6-9.4,11.2-19.3,15.2-29.6
		C303.1,693.3,299.5,692.1,295.9,691z"/>
	<path class="st0" d="M293.3,671.6c-10.8-1.6-21.9-2.1-33-1.6c0.7,2.3,1.4,4.6,2.2,6.8c9.7,1.4,19.2,3.3,28.6,5.8
		C291.9,679,292.6,675.4,293.3,671.6z"/>
	<path class="st0" d="M265.3,684c4.4,10.5,10,20.2,16.7,28.9c2.9-7.8,5.5-15.7,7.6-23.7C281.5,687,273.5,685.3,265.3,684z"/>
	<path class="st0" d="M376.5,734.8c-6.9,8.7-12.9,18.2-18.1,28.3c2.2,0.5,4.5,1,6.8,1.4c6.1-7.8,12.6-15.3,19.6-22.3
		C382.1,739.7,379.3,737.2,376.5,734.8z"/>
	<path class="st0" d="M432.9,713c-3.6,15.5-5.1,31.7-4.2,48.1c21.2-6.3,39.7-17.3,54.6-31.6c-13.7-8.8-28.5-15.6-43.9-20.2
		C437.3,710.4,435.1,711.7,432.9,713z"/>
	<path class="st0" d="M521.6,599.2c-14.6,7.5-27.9,17-39.4,28c0,2.4,0,4.7,0,7.1c11.7,11,25,20.4,39.8,27.9
		C526.6,642.1,526.8,620.6,521.6,599.2z"/>
	<path class="st0" d="M497.7,713.4c7.1-9.3,12.9-19.5,17.4-30.2c-8.6,1.3-17.1,3.1-25.5,5.4C491.8,697,494.5,705.3,497.7,713.4z"/>
	<path class="st0" d="M485.8,671.2c0.7,3.7,1.4,7.3,2.3,11c9.8-2.7,19.8-4.7,29.8-6.1c0.7-2.1,1.4-4.3,2.1-6.5
		C508.5,669,497.1,669.5,485.8,671.2z"/>
	<path class="st0" d="M479.2,672.3c-4.3,0.8-8.5,1.8-12.7,2.9c1.1,4.2,2.4,8.4,3.9,12.6c3.7-1.3,7.5-2.6,11.3-3.8
		C480.7,680.1,479.9,676.2,479.2,672.3z"/>
	<path class="st0" d="M472.7,694c4.2,10.5,9.4,20.7,15.7,30.3c1.5-1.6,3.1-3.3,4.5-5c-3.9-9.5-7.1-19.1-9.7-28.9
		C479.7,691.6,476.2,692.8,472.7,694z"/>
	<path class="st0" d="M478.1,665.7c-1.4-9.5-2.3-19-2.5-28.5c-0.5-0.5-1.1-1.1-1.7-1.6c-4.4,4.7-8.4,9.7-12.2,14.9
		c0.7,6.1,1.8,12.3,3.2,18.3C469.2,667.6,473.7,666.5,478.1,665.7z"/>
	<path class="st0" d="M384.3,520c-6.9-6.8-13.4-14.1-19.4-21.8c-2.3,0.4-4.6,0.9-6.8,1.5c5.1,9.9,11.1,19.2,17.9,27.8
		C378.8,525.1,381.6,522.6,384.3,520z"/>
	<path class="st0" d="M483,571.3c2.5-9.7,5.7-19.2,9.5-28.6c-1.5-1.7-3-3.4-4.6-5c-6.2,9.6-11.4,19.7-15.5,30.1
		C475.9,569,479.4,570.1,483,571.3z"/>
	<path class="st0" d="M439,552.6c15.4-4.7,30.1-11.5,43.5-20.2c-15.5-14.4-34.1-25-54.3-31c-0.8,16.3,0.8,32.2,4.5,47.6
		C434.7,550.2,436.9,551.4,439,552.6z"/>
	<path class="st0" d="M514.7,578.4c-4.6-10.8-10.5-20.8-17.4-29.8c-3.1,8-5.7,16.2-7.8,24.5C497.7,575.3,506.1,577.1,514.7,578.4z"
		/>
	<path class="st0" d="M293.1,591c-0.7-3.7-1.4-7.3-2.2-11c-9.4,2.6-18.9,4.6-28.4,6c-0.8,2.2-1.5,4.5-2.2,6.7
		C271.2,593.2,282.2,592.6,293.1,591z"/>
	<path class="st0" d="M482.4,617.8c7.9-7,16.6-13.3,25.8-18.9c-8-0.1-15.9-0.7-23.8-1.9C483.5,604,482.8,610.9,482.4,617.8z"/>
	<path class="st0" d="M405.9,496.8c-11-1.3-22.2-1.2-33.4,0.2c5.3,6.4,10.8,12.6,16.7,18.4C395,509.6,400.6,503.3,405.9,496.8z"/>
	<path class="st0" d="M446.8,587.2c2.8,5.5,5.8,10.8,9.2,15.9c0.6-4,1.3-8,2.2-12C454.4,590,450.6,588.7,446.8,587.2z"/>
	<path class="st0" d="M402.4,527.5c6.9-8.7,12.9-18.2,18.1-28.2c-2.3-0.5-4.7-1-7-1.4c-6.1,7.8-12.5,15.2-19.5,22.1
		C396.7,522.6,399.5,525.1,402.4,527.5z"/>
	<path class="st0" d="M306.4,568.1c-4.1-10.2-9.2-20-15.2-29.4c-1.6,1.7-3.2,3.5-4.7,5.3c3.7,9,6.7,18.2,9.2,27.7
		C299.3,570.6,302.9,569.3,306.4,568.1z"/>
	<path class="st0" d="M317.4,611.9c-0.7-6.3-1.8-12.4-3.2-18.5c-4.5,1.2-8.9,2.2-13.4,3.1c1.4,9,2.2,18.2,2.5,27.5
		c0.8,0.7,1.6,1.5,2.3,2.2C309.8,621.7,313.8,616.9,317.4,611.9z"/>
	<path class="st0" d="M281.7,550.1c-6.6,8.8-12.2,18.5-16.5,28.7c8.1-1.3,16.1-3.1,24.1-5.2C287.2,565.6,284.6,557.7,281.7,550.1z"
		/>
	<path class="st0" d="M346.5,548.8c3.6-15.2,5-31,4.2-47c-20.8,6.3-39,17.2-53.8,31.2c13.4,8.5,27.9,15.1,43,19.7
		C342.1,551.4,344.4,550.1,346.5,548.8z"/>
	<path class="st0" d="M357.6,512.7c-0.2,10.5-1.3,20.9-3.3,31.1c5.7-3.8,11.2-7.8,16.5-12C366,525.7,361.6,519.3,357.6,512.7z"/>
	<path class="st0" d="M299.7,589.9c4.4-0.8,8.7-1.8,13-3c-1.1-4.3-2.5-8.4-3.9-12.6c-3.8,1.4-7.6,2.6-11.5,3.8
		C298.2,582,299,585.9,299.7,589.9z"/>
	<path class="st0" d="M437.8,559.9c-0.6,0.2-1.3,0.3-1.9,0.5c1.9,6.1,4.2,12.1,6.8,17.9c5.6,2.4,11.4,4.6,17.3,6.4
		c1.1-4.4,2.5-8.7,4-13c-8.8-3.4-17.4-7.4-25.6-11.8C438.1,559.8,437.9,559.9,437.8,559.9z"/>
</g>
<g>
	<path class="st0" d="M407,86.7c4.7,4.3,9.5,8.2,14.6,12c6.3-0.7,12.6-1.8,18.8-3.2c-0.2-0.8-0.5-1.6-0.7-2.4
		c-8.1-5-16-10.5-23.5-16.4C413.3,80.2,410.2,83.5,407,86.7z"/>
	<path class="st0" d="M344.3,245c-6.1-3.1-12.3-5.8-18.6-8.2c-2.9,7.3-6.3,14.3-10.1,21.2C324.8,252.8,334.4,248.4,344.3,245z"/>
	<path class="st0" d="M437.6,83.9c-2.1-10.6-3.3-21.4-3.4-32.4c-4.1,7-8.7,13.7-13.7,20C426,75.9,431.7,80,437.6,83.9z"/>
	<path class="st0" d="M354.5,241.8c0.7-0.2,1.3-0.3,2-0.5c-1.8-5.8-4-11.6-6.5-17.2c-5.9-2.5-11.9-4.8-18-6.7
		c-1.2,4.5-2.5,8.8-4,13.2c8.6,3.4,17.1,7.3,25.2,11.6C353.7,242,354.1,241.9,354.5,241.8z"/>
	<path class="st0" d="M340.3,204.7c-1.3-2.3-2.7-4.5-4.2-6.7c-0.6,4.3-1.4,8.6-2.4,12.8c4.1,1.3,8.2,2.6,12.2,4.2
		C344.1,211.6,342.3,208.1,340.3,204.7z"/>
	<path class="st0" d="M309.3,184.3c-7.9,6.9-16.5,13.2-25.7,18.7c8,0.1,15.9,0.7,23.7,1.9C308.2,198.1,308.9,191.2,309.3,184.3z"/>
	<path class="st0" d="M325.7,215.5c-4.3-1.1-8.6-2.1-12.9-2.9c-0.7,4-1.5,7.9-2.4,11.8c3.9,1.2,7.7,2.4,11.4,3.8
		C323.3,224,324.5,219.7,325.7,215.5z"/>
	<path class="st0" d="M333.5,131.3c0.9,4.1,1.7,8.1,2.4,12.3c3.5-5.3,6.6-10.8,9.5-16.4C341.5,128.7,337.5,130.1,333.5,131.3z"/>
	<path class="st0" d="M411.7,99.5c-3.3-2.6-6.4-5.3-9.5-8.1c-3,2.8-6.1,5.5-9.4,8.1C399.1,99.8,405.4,99.8,411.7,99.5z"/>
	<path class="st0" d="M460.1,96.8c6.2,3.1,12.5,5.9,18.9,8.4c2.8-7.3,6.3-14.5,10.1-21.5C479.9,88.9,470.1,93.3,460.1,96.8z"/>
	<path class="st0" d="M325.5,105.5c6.5-2.6,12.9-5.5,19.2-8.7c-10.2-3.5-20.1-7.8-29.6-13.1C319,90.7,322.5,98,325.5,105.5z"/>
	<path class="st0" d="M402,64.5c-2.9,2.7-5.8,5.4-8.8,7.9c2.9,3.4,5.9,6.6,9,9.7c3.1-3.1,6-6.3,8.9-9.6C408,69.9,405,67.2,402,64.5z
		"/>
	<path class="st0" d="M397.4,86.7c-3.3-3.2-6.4-6.6-9.4-10.1c-7.3,5.8-14.9,11.2-22.8,16.2c-0.2,0.9-0.4,1.8-0.7,2.7
		c6.1,1.4,12.3,2.4,18.6,3.1C388.1,95,392.8,90.9,397.4,86.7z"/>
	<path class="st0" d="M392.8,242.1c3.4,2.7,6.6,5.4,9.8,8.3c3.2-2.9,6.4-5.7,9.7-8.4C405.8,241.7,399.3,241.7,392.8,242.1z"/>
	<path class="st0" d="M367.9,258.6c2,10.2,3,20.5,3.2,30.9c4-6.6,8.4-13,13.1-19.1C378.9,266.2,373.5,262.3,367.9,258.6z"/>
	<path class="st0" d="M402.5,277.3c2.9-2.7,5.9-5.5,9-8.1c-2.9-3.3-5.9-6.5-9-9.6c-3.1,3.2-6.1,6.4-9,9.8
		C396.6,272,399.6,274.6,402.5,277.3z"/>
	<path class="st0" d="M397.8,255.1c-4.7-4.3-9.7-8.4-14.8-12.1c-6,0.7-12,1.7-18,3.1c0.3,1.1,0.6,2.2,0.9,3.4
		c7.8,4.8,15.4,10.1,22.6,15.9C391.4,261.7,394.5,258.3,397.8,255.1z"/>
	<path class="st0" d="M494.3,117.5c-3.8-1.1-7.6-2.4-11.3-3.8c-1.4,4.2-2.7,8.3-3.8,12.6c4.2,1.1,8.4,2.1,12.7,2.9
		C492.6,125.3,493.4,121.4,494.3,117.5z"/>
	<path class="st0" d="M498.5,130.3c11.1,1.6,22.5,2.2,34,1.5c-0.7-2.2-1.4-4.4-2.1-6.5c-10-1.4-19.9-3.4-29.6-6
		C499.8,123,499.1,126.7,498.5,130.3z"/>
	<path class="st0" d="M521.7,202.4c-9.4-5.6-18.2-12-26.3-19.1c0.4,7,1.1,14,2.2,21C505.5,203.2,513.6,202.5,521.7,202.4z"/>
	<path class="st0" d="M284.1,139.3c8.9,5.3,17.3,11.4,25.1,18.1c-0.4-6.8-1.1-13.4-2.1-20.1C299.5,138.5,291.8,139.2,284.1,139.3z"
		/>
	<path class="st0" d="M488.4,164.1c0.3-9.5,1.1-18.9,2.4-28.3c-4.5-0.8-8.9-1.8-13.3-3c-1.3,6-2.3,12.1-3,18.2
		c3.8,5.1,7.9,10,12.2,14.7C487.3,165.2,487.8,164.6,488.4,164.1z"/>
	<path class="st0" d="M479.3,236.2c-6.4,2.5-12.7,5.4-18.8,8.4c9.9,3.4,19.6,7.6,28.8,12.7C485.5,250.5,482.2,243.4,479.3,236.2z"/>
	<path class="st0" d="M407.4,255.1c3.2,3.2,6.3,6.5,9.3,10c7.4-5.9,15.2-11.5,23.3-16.5c0.2-0.8,0.4-1.7,0.7-2.6
		c-6.1-1.4-12.4-2.4-18.7-3.1C416.9,246.6,412,250.7,407.4,255.1z"/>
	<path class="st0" d="M330.4,189.9c-3.7-5-7.7-9.8-11.9-14.2c-0.8,0.8-1.5,1.6-2.3,2.3c-0.2,9.4-1,18.8-2.4,28
		c4.5,0.8,9,1.8,13.4,3.1C328.6,202.7,329.7,196.4,330.4,189.9z"/>
	<path class="st0" d="M469,198.4c-3.4,5.2-6.4,10.5-9.2,16.1c3.8-1.5,7.7-2.8,11.6-4.1C470.4,206.4,469.6,202.4,469,198.4z"/>
	<path class="st0" d="M477,230c-1.5-4.3-2.9-8.7-4.1-13.1c-5.9,1.9-11.7,4-17.4,6.5c-2.5,5.8-4.7,11.7-6.6,17.8
		c0.9,0.2,1.7,0.4,2.6,0.7C459.8,237.4,468.2,233.4,477,230z"/>
	<path class="st0" d="M356.2,100.3c-0.9-0.2-1.7-0.5-2.6-0.7c-8.3,4.5-16.9,8.6-25.8,12.1c1.5,4.3,2.9,8.7,4.1,13.1
		c6-1.9,12-4.1,17.7-6.6C352.1,112.4,354.3,106.4,356.2,100.3z"/>
	<path class="st0" d="M434.7,290.1c0.1-10.9,1.2-21.7,3.3-32.3c-5.9,3.9-11.6,8-17,12.4C425.9,276.4,430.5,283.1,434.7,290.1z"/>
	<path class="st0" d="M309.6,168.6c0-0.6,0-1.3,0-1.9c-11.5-10.7-24.4-19.7-38.4-26.9c-4.8,20-5,41.3,0,62.4
		c14.2-7.4,27.1-16.6,38.5-27.2C309.6,172.9,309.7,170.8,309.6,168.6z"/>
	<path class="st0" d="M407.3,282c7.1,7,13.8,14.5,20,22.4c2.3-0.4,4.6-0.9,6.8-1.4c-5.2-10.2-11.3-19.8-18.3-28.5
		C412.9,276.8,410.1,279.4,407.3,282z"/>
	<path class="st0" d="M352.5,249.3c-15.1,4.7-29.6,11.5-42.8,20.1c15.5,14.6,34.2,25.4,54.5,31.5c0.8-16-0.6-31.8-4.2-47.3
		C357.5,252.1,355,250.7,352.5,249.3z"/>
	<path class="st0" d="M385.6,305.5c11.2,1.4,22.6,1.5,34.1,0c-5.4-6.7-11.1-13-17.2-18.9C396.5,292.6,390.9,298.9,385.6,305.5z"/>
	<path class="st0" d="M308.8,230.8c-2.5,9.5-5.6,18.8-9.2,27.9c1.5,1.8,3.1,3.6,4.7,5.3c6-9.4,11.2-19.3,15.2-29.6
		C316,233.1,312.4,231.9,308.8,230.8z"/>
	<path class="st0" d="M306.2,211.4c-10.8-1.6-21.9-2.1-33-1.6c0.7,2.3,1.4,4.6,2.2,6.8c9.7,1.4,19.2,3.3,28.6,5.8
		C304.8,218.9,305.5,215.2,306.2,211.4z"/>
	<path class="st0" d="M278.1,223.8c4.4,10.5,10,20.2,16.7,28.9c2.9-7.8,5.5-15.7,7.6-23.7C294.4,226.8,286.3,225.1,278.1,223.8z"/>
	<path class="st0" d="M389.3,274.6c-6.9,8.7-12.9,18.2-18.1,28.3c2.2,0.5,4.5,1,6.8,1.4c6.1-7.8,12.6-15.3,19.6-22.3
		C395,279.5,392.2,277,389.3,274.6z"/>
	<path class="st0" d="M445.8,252.8c-3.6,15.5-5.1,31.7-4.2,48.1c21.2-6.3,39.7-17.3,54.6-31.6c-13.7-8.8-28.5-15.6-43.9-20.2
		C450.1,250.3,448,251.5,445.8,252.8z"/>
	<path class="st0" d="M534.4,139c-14.6,7.5-27.9,17-39.4,28c0,2.4,0,4.7,0,7.1c11.7,11,25,20.4,39.8,27.9
		C539.5,181.9,539.7,160.4,534.4,139z"/>
	<path class="st0" d="M510.6,253.2c7.1-9.3,12.9-19.5,17.4-30.2c-8.6,1.3-17.1,3.1-25.5,5.4C504.7,236.8,507.4,245.1,510.6,253.2z"
		/>
	<path class="st0" d="M498.6,211c0.7,3.7,1.4,7.3,2.3,11c9.8-2.7,19.8-4.7,29.8-6.1c0.7-2.1,1.4-4.3,2.1-6.5
		C521.4,208.8,509.9,209.3,498.6,211z"/>
	<path class="st0" d="M492.1,212.1c-4.3,0.8-8.5,1.8-12.7,2.9c1.1,4.2,2.4,8.4,3.9,12.6c3.7-1.3,7.5-2.6,11.3-3.8
		C493.6,220,492.8,216,492.1,212.1z"/>
	<path class="st0" d="M485.6,233.8c4.2,10.5,9.4,20.7,15.7,30.3c1.5-1.6,3.1-3.3,4.5-5c-3.9-9.5-7.1-19.1-9.7-28.9
		C492.5,231.4,489,232.6,485.6,233.8z"/>
	<path class="st0" d="M491,205.5c-1.4-9.5-2.3-19-2.5-28.5c-0.5-0.5-1.1-1.1-1.7-1.6c-4.4,4.7-8.4,9.7-12.2,14.9
		c0.7,6.1,1.8,12.3,3.2,18.3C482.1,207.4,486.5,206.4,491,205.5z"/>
	<path class="st0" d="M397.2,59.9c-6.9-6.8-13.4-14.1-19.4-21.8c-2.3,0.4-4.6,0.9-6.8,1.5c5.1,9.9,11.1,19.2,17.9,27.8
		C391.7,64.9,394.5,62.4,397.2,59.9z"/>
	<path class="st0" d="M495.9,111.1c2.5-9.7,5.7-19.2,9.5-28.6c-1.5-1.7-3-3.4-4.6-5c-6.2,9.6-11.4,19.7-15.5,30.1
		C488.8,108.8,492.3,110,495.9,111.1z"/>
	<path class="st0" d="M451.8,92.4c15.4-4.7,30.1-11.5,43.5-20.2c-15.5-14.4-34.1-25-54.3-31c-0.8,16.3,0.8,32.2,4.5,47.6
		C447.6,90.1,449.7,91.3,451.8,92.4z"/>
	<path class="st0" d="M527.5,118.2c-4.6-10.8-10.5-20.8-17.4-29.8c-3.1,8-5.7,16.2-7.8,24.5C510.5,115.2,519,116.9,527.5,118.2z"/>
	<path class="st0" d="M306,130.8c-0.7-3.7-1.4-7.3-2.2-11c-9.4,2.6-18.9,4.6-28.4,6c-0.8,2.2-1.5,4.5-2.2,6.7
		C284.1,133,295.1,132.4,306,130.8z"/>
	<path class="st0" d="M495.3,157.7c7.9-7,16.6-13.3,25.8-18.9c-8-0.1-15.9-0.7-23.8-1.9C496.4,143.8,495.7,150.7,495.3,157.7z"/>
	<path class="st0" d="M418.7,36.6c-11-1.3-22.2-1.2-33.4,0.2c5.3,6.4,10.8,12.6,16.7,18.4C407.9,49.4,413.5,43.1,418.7,36.6z"/>
	<path class="st0" d="M459.7,127.1c2.8,5.5,5.8,10.8,9.2,15.9c0.6-4,1.3-8,2.2-12C467.3,129.8,463.5,128.5,459.7,127.1z"/>
	<path class="st0" d="M415.3,67.3c6.9-8.7,12.9-18.2,18.1-28.2c-2.3-0.5-4.7-1-7-1.4c-6.1,7.8-12.5,15.2-19.5,22.1
		C409.5,62.4,412.4,64.9,415.3,67.3z"/>
	<path class="st0" d="M319.3,107.9c-4.1-10.2-9.2-20-15.2-29.4c-1.6,1.7-3.2,3.5-4.7,5.3c3.7,9,6.7,18.2,9.2,27.7
		C312.2,110.4,315.7,109.2,319.3,107.9z"/>
	<path class="st0" d="M330.3,151.7c-0.7-6.3-1.8-12.4-3.2-18.5c-4.5,1.2-8.9,2.2-13.4,3.1c1.4,9,2.2,18.2,2.5,27.5
		c0.8,0.7,1.6,1.5,2.3,2.2C322.7,161.5,326.6,156.7,330.3,151.7z"/>
	<path class="st0" d="M294.6,89.9c-6.6,8.8-12.2,18.5-16.5,28.7c8.1-1.3,16.1-3.1,24.1-5.2C300.1,105.4,297.5,97.5,294.6,89.9z"/>
	<path class="st0" d="M359.4,88.6c3.6-15.2,5-31,4.2-47c-20.8,6.3-39,17.2-53.8,31.2c13.4,8.5,27.9,15.1,43,19.7
		C355,91.2,357.2,89.9,359.4,88.6z"/>
	<path class="st0" d="M370.5,52.5c-0.2,10.5-1.3,20.9-3.3,31.1c5.7-3.8,11.2-7.8,16.5-12C378.9,65.5,374.5,59.2,370.5,52.5z"/>
	<path class="st0" d="M312.6,129.7c4.4-0.8,8.7-1.8,13-3c-1.1-4.3-2.5-8.4-3.9-12.6c-3.8,1.4-7.6,2.6-11.5,3.8
		C311.1,121.8,311.9,125.8,312.6,129.7z"/>
	<path class="st0" d="M450.6,99.7c-0.6,0.2-1.3,0.3-1.9,0.5c1.9,6.1,4.2,12.1,6.8,17.9c5.6,2.4,11.4,4.6,17.3,6.4
		c1.1-4.4,2.5-8.7,4-13c-8.8-3.4-17.4-7.4-25.6-11.8C450.9,99.6,450.8,99.7,450.6,99.7z"/>
</g>
<g>
	<path class="st0" d="M129.3,348.8c4.7,4.3,9.5,8.2,14.6,12c6.3-0.7,12.6-1.8,18.8-3.2c-0.2-0.8-0.5-1.6-0.7-2.4
		c-8.1-5-16-10.5-23.5-16.4C135.6,342.3,132.5,345.6,129.3,348.8z"/>
	<path class="st0" d="M66.7,507.1c-6.1-3.1-12.3-5.8-18.6-8.2c-2.9,7.3-6.3,14.3-10.1,21.2C47.2,514.9,56.7,510.6,66.7,507.1z"/>
	<path class="st0" d="M160,346c-2.1-10.6-3.3-21.4-3.4-32.4c-4.1,7-8.7,13.7-13.7,20C148.3,338,154.1,342.2,160,346z"/>
	<path class="st0" d="M76.9,503.9c0.7-0.2,1.3-0.3,2-0.5c-1.8-5.8-4-11.6-6.5-17.2c-5.9-2.5-11.9-4.8-18-6.7
		c-1.2,4.5-2.5,8.8-4,13.2c8.6,3.4,17.1,7.3,25.2,11.6C76.1,504.2,76.5,504,76.9,503.9z"/>
	<path class="st0" d="M62.6,466.9c-1.3-2.3-2.7-4.5-4.2-6.7c-0.6,4.3-1.4,8.6-2.4,12.8c4.1,1.3,8.2,2.6,12.2,4.2
		C66.5,473.7,64.6,470.3,62.6,466.9z"/>
	<path class="st0" d="M31.7,446.5c-7.9,6.9-16.5,13.2-25.7,18.7c8,0.1,15.9,0.7,23.7,1.9C30.6,460.2,31.3,453.4,31.7,446.5z"/>
	<path class="st0" d="M48.1,477.6c-4.3-1.1-8.6-2.1-12.9-2.9c-0.7,4-1.5,7.9-2.4,11.8c3.9,1.2,7.7,2.4,11.4,3.8
		C45.6,486.1,46.9,481.9,48.1,477.6z"/>
	<path class="st0" d="M55.9,393.4c0.9,4.1,1.7,8.1,2.4,12.3c3.5-5.3,6.6-10.8,9.5-16.4C63.9,390.8,59.9,392.2,55.9,393.4z"/>
	<path class="st0" d="M134,361.6c-3.3-2.6-6.4-5.3-9.5-8.1c-3,2.8-6.1,5.5-9.4,8.1C121.5,361.9,127.8,361.9,134,361.6z"/>
	<path class="st0" d="M182.5,358.9c6.2,3.1,12.5,5.9,18.9,8.4c2.8-7.3,6.3-14.5,10.1-21.5C202.3,351.1,192.5,355.4,182.5,358.9z"/>
	<path class="st0" d="M47.9,367.6c6.5-2.6,12.9-5.5,19.2-8.7c-10.2-3.5-20.1-7.8-29.6-13.1C41.4,352.8,44.9,360.1,47.9,367.6z"/>
	<path class="st0" d="M124.3,326.6c-2.9,2.7-5.8,5.4-8.8,7.9c2.9,3.4,5.9,6.6,9,9.7c3.1-3.1,6-6.3,8.9-9.6
		C130.3,332,127.3,329.4,124.3,326.6z"/>
	<path class="st0" d="M119.8,348.9c-3.3-3.2-6.4-6.6-9.4-10.1c-7.3,5.8-14.9,11.2-22.8,16.2c-0.2,0.9-0.4,1.8-0.7,2.7
		c6.1,1.4,12.3,2.4,18.6,3.1C110.4,357.1,115.2,353.1,119.8,348.9z"/>
	<path class="st0" d="M115.2,504.2c3.4,2.7,6.6,5.4,9.8,8.3c3.2-2.9,6.4-5.7,9.7-8.4C128.2,503.8,121.7,503.8,115.2,504.2z"/>
	<path class="st0" d="M90.3,520.7c2,10.2,3,20.5,3.2,30.9c4-6.6,8.4-13,13.1-19.1C101.3,528.3,95.9,524.4,90.3,520.7z"/>
	<path class="st0" d="M124.9,539.5c2.9-2.7,5.9-5.5,9-8.1c-2.9-3.3-5.9-6.5-9-9.6c-3.1,3.2-6.1,6.4-9,9.8
		C119,534.1,122,536.8,124.9,539.5z"/>
	<path class="st0" d="M120.2,517.2c-4.7-4.3-9.7-8.4-14.8-12.1c-6,0.7-12,1.7-18,3.1c0.3,1.1,0.6,2.2,0.9,3.4
		c7.8,4.8,15.4,10.1,22.6,15.9C113.8,523.9,116.9,520.5,120.2,517.2z"/>
	<path class="st0" d="M216.7,379.7c-3.8-1.1-7.6-2.4-11.3-3.8c-1.4,4.2-2.7,8.3-3.8,12.6c4.2,1.1,8.4,2.1,12.7,2.9
		C215,387.4,215.7,383.5,216.7,379.7z"/>
	<path class="st0" d="M220.8,392.4c11.1,1.6,22.5,2.2,34,1.5c-0.7-2.2-1.4-4.4-2.1-6.5c-10-1.4-19.9-3.4-29.6-6
		C222.2,385.1,221.5,388.8,220.8,392.4z"/>
	<path class="st0" d="M244.1,464.6c-9.4-5.6-18.2-12-26.3-19.1c0.4,7,1.1,14,2.2,21C227.9,465.3,236,464.7,244.1,464.6z"/>
	<path class="st0" d="M6.5,401.5c8.9,5.3,17.3,11.4,25.1,18.1c-0.4-6.8-1.1-13.4-2.1-20.1C21.9,400.7,14.2,401.3,6.5,401.5z"/>
	<path class="st0" d="M210.8,426.2c0.3-9.5,1.1-18.9,2.4-28.3c-4.5-0.8-8.9-1.8-13.3-3c-1.3,6-2.3,12.1-3,18.2
		c3.8,5.1,7.9,10,12.2,14.7C209.7,427.3,210.2,426.8,210.8,426.2z"/>
	<path class="st0" d="M201.7,498.4c-6.4,2.5-12.7,5.4-18.8,8.4c9.9,3.4,19.6,7.6,28.8,12.7C207.9,512.6,204.5,505.6,201.7,498.4z"/>
	<path class="st0" d="M129.7,517.2c3.2,3.2,6.3,6.5,9.3,10c7.4-5.9,15.2-11.5,23.3-16.5c0.2-0.8,0.4-1.7,0.7-2.6
		c-6.1-1.4-12.4-2.4-18.7-3.1C139.3,508.8,134.4,512.9,129.7,517.2z"/>
	<path class="st0" d="M52.8,452.1c-3.7-5-7.7-9.8-11.9-14.2c-0.8,0.8-1.5,1.6-2.3,2.3c-0.2,9.4-1,18.8-2.4,28
		c4.5,0.8,9,1.8,13.4,3.1C51,464.9,52.1,458.5,52.8,452.1z"/>
	<path class="st0" d="M191.3,460.5c-3.4,5.2-6.4,10.5-9.2,16.1c3.8-1.5,7.7-2.8,11.6-4.1C192.8,468.6,192,464.6,191.3,460.5z"/>
	<path class="st0" d="M199.4,492.1c-1.5-4.3-2.9-8.7-4.1-13.1c-5.9,1.9-11.7,4-17.4,6.5c-2.5,5.8-4.7,11.7-6.6,17.8
		c0.9,0.2,1.7,0.4,2.6,0.7C182.1,499.6,190.6,495.6,199.4,492.1z"/>
	<path class="st0" d="M78.6,362.4c-0.9-0.2-1.7-0.5-2.6-0.7c-8.3,4.5-16.9,8.6-25.8,12.1c1.5,4.3,2.9,8.7,4.1,13.1
		c6-1.9,12-4.1,17.7-6.6C74.5,374.5,76.7,368.5,78.6,362.4z"/>
	<path class="st0" d="M157.1,552.2c0.1-10.9,1.2-21.7,3.3-32.3c-5.9,3.9-11.6,8-17,12.4C148.3,538.5,152.9,545.2,157.1,552.2z"/>
	<path class="st0" d="M32,430.7c0-0.6,0-1.3,0-1.9C20.5,418.1,7.6,409.1-6.5,402c-4.8,20-5,41.3,0,62.4C7.7,457,20.6,447.8,32,437.1
		C32,435,32,432.9,32,430.7z"/>
	<path class="st0" d="M129.7,544.1c7.1,7,13.8,14.5,20,22.4c2.3-0.4,4.6-0.9,6.8-1.4c-5.2-10.2-11.3-19.8-18.3-28.5
		C135.3,539,132.5,541.5,129.7,544.1z"/>
	<path class="st0" d="M74.9,511.5c-15.1,4.7-29.6,11.5-42.8,20.1c15.5,14.6,34.2,25.4,54.5,31.5c0.8-16-0.6-31.8-4.2-47.3
		C79.9,514.3,77.4,512.8,74.9,511.5z"/>
	<path class="st0" d="M108,567.6c11.2,1.4,22.6,1.5,34.1,0c-5.4-6.7-11.1-13-17.2-18.9C118.9,554.7,113.3,561,108,567.6z"/>
	<path class="st0" d="M31.2,492.9c-2.5,9.5-5.6,18.8-9.2,27.9c1.5,1.8,3.1,3.6,4.7,5.3c6-9.4,11.2-19.3,15.2-29.6
		C38.3,495.2,34.8,494.1,31.2,492.9z"/>
	<path class="st0" d="M28.6,473.6c-10.8-1.6-21.9-2.1-33-1.6c0.7,2.3,1.4,4.6,2.2,6.8c9.7,1.4,19.2,3.3,28.6,5.8
		C27.1,481,27.9,477.3,28.6,473.6z"/>
	<path class="st0" d="M0.5,485.9c4.4,10.5,10,20.2,16.7,28.9c2.9-7.8,5.5-15.7,7.6-23.7C16.8,488.9,8.7,487.2,0.5,485.9z"/>
	<path class="st0" d="M111.7,536.7c-6.9,8.7-12.9,18.2-18.1,28.3c2.2,0.5,4.5,1,6.8,1.4c6.1-7.8,12.6-15.3,19.6-22.3
		C117.4,541.6,114.6,539.1,111.7,536.7z"/>
	<path class="st0" d="M168.2,514.9c-3.6,15.5-5.1,31.7-4.2,48.1c21.2-6.3,39.7-17.3,54.6-31.6c-13.7-8.8-28.5-15.6-43.9-20.2
		C172.5,512.4,170.3,513.7,168.2,514.9z"/>
	<path class="st0" d="M256.8,401.1c-14.6,7.5-27.9,17-39.4,28c0,2.4,0,4.7,0,7.1c11.7,11,25,20.4,39.8,27.9
		C261.9,444,262,422.5,256.8,401.1z"/>
	<path class="st0" d="M233,515.4c7.1-9.3,12.9-19.5,17.4-30.2c-8.6,1.3-17.1,3.1-25.5,5.4C227.1,499,229.8,507.2,233,515.4z"/>
	<path class="st0" d="M221,473.1c0.7,3.7,1.4,7.3,2.3,11c9.8-2.7,19.8-4.7,29.8-6.1c0.7-2.1,1.4-4.3,2.1-6.5
		C243.8,470.9,232.3,471.4,221,473.1z"/>
	<path class="st0" d="M214.4,474.2c-4.3,0.8-8.5,1.8-12.7,2.9c1.1,4.2,2.4,8.4,3.9,12.6c3.7-1.3,7.5-2.6,11.3-3.8
		C215.9,482.1,215.1,478.2,214.4,474.2z"/>
	<path class="st0" d="M207.9,496c4.2,10.5,9.4,20.7,15.7,30.3c1.5-1.6,3.1-3.3,4.5-5c-3.9-9.5-7.1-19.1-9.7-28.9
		C214.9,493.5,211.4,494.7,207.9,496z"/>
	<path class="st0" d="M213.4,467.7c-1.4-9.5-2.3-19-2.5-28.5c-0.5-0.5-1.1-1.1-1.7-1.6c-4.4,4.7-8.4,9.7-12.2,14.9
		c0.7,6.1,1.8,12.3,3.2,18.3C204.5,469.5,208.9,468.5,213.4,467.7z"/>
	<path class="st0" d="M119.5,322c-6.9-6.8-13.4-14.1-19.4-21.8c-2.3,0.4-4.6,0.9-6.8,1.5c5.1,9.9,11.1,19.2,17.9,27.8
		C114.1,327,116.8,324.5,119.5,322z"/>
	<path class="st0" d="M218.2,373.2c2.5-9.7,5.7-19.2,9.5-28.6c-1.5-1.7-3-3.4-4.6-5c-6.2,9.6-11.4,19.7-15.5,30.1
		C211.1,370.9,214.7,372.1,218.2,373.2z"/>
	<path class="st0" d="M174.2,354.6c15.4-4.7,30.1-11.5,43.5-20.2c-15.5-14.4-34.1-25-54.3-31c-0.8,16.3,0.8,32.2,4.5,47.6
		C170,352.2,172.1,353.4,174.2,354.6z"/>
	<path class="st0" d="M249.9,380.4c-4.6-10.8-10.5-20.8-17.4-29.8c-3.1,8-5.7,16.2-7.8,24.5C232.9,377.3,241.3,379.1,249.9,380.4z"
		/>
	<path class="st0" d="M28.4,393c-0.7-3.7-1.4-7.3-2.2-11c-9.4,2.6-18.9,4.6-28.4,6c-0.8,2.2-1.5,4.5-2.2,6.7
		C6.5,395.1,17.5,394.6,28.4,393z"/>
	<path class="st0" d="M217.7,419.8c7.9-7,16.6-13.3,25.8-18.9c-8-0.1-15.9-0.7-23.8-1.9C218.8,405.9,218.1,412.8,217.7,419.8z"/>
	<path class="st0" d="M141.1,298.8c-11-1.3-22.2-1.2-33.4,0.2c5.3,6.4,10.8,12.6,16.7,18.4C130.2,311.5,135.8,305.3,141.1,298.8z"/>
	<path class="st0" d="M182.1,389.2c2.8,5.5,5.8,10.8,9.2,15.9c0.6-4,1.3-8,2.2-12C189.7,391.9,185.8,390.6,182.1,389.2z"/>
	<path class="st0" d="M137.6,329.5c6.9-8.7,12.9-18.2,18.1-28.2c-2.3-0.5-4.7-1-7-1.4c-6.1,7.8-12.5,15.2-19.5,22.1
		C131.9,324.5,134.7,327,137.6,329.5z"/>
	<path class="st0" d="M41.6,370c-4.1-10.2-9.2-20-15.2-29.4c-1.6,1.7-3.2,3.5-4.7,5.3c3.7,9,6.7,18.2,9.2,27.7
		C34.6,372.5,38.1,371.3,41.6,370z"/>
	<path class="st0" d="M52.7,413.8c-0.7-6.3-1.8-12.4-3.2-18.5c-4.5,1.2-8.9,2.2-13.4,3.1c1.4,9,2.2,18.2,2.5,27.5
		c0.8,0.7,1.6,1.5,2.3,2.2C45.1,423.6,49,418.8,52.7,413.8z"/>
	<path class="st0" d="M17,352c-6.6,8.8-12.2,18.5-16.5,28.7c8.1-1.3,16.1-3.1,24.1-5.2C22.5,367.5,19.9,359.7,17,352z"/>
	<path class="st0" d="M81.8,350.7c3.6-15.2,5-31,4.2-47c-20.8,6.3-39,17.2-53.8,31.2c13.4,8.5,27.9,15.1,43,19.7
		C77.4,353.3,79.6,352,81.8,350.7z"/>
	<path class="st0" d="M92.9,314.6c-0.2,10.5-1.3,20.9-3.3,31.1c5.7-3.8,11.2-7.8,16.5-12C101.3,327.7,96.9,321.3,92.9,314.6z"/>
	<path class="st0" d="M35,391.8c4.4-0.8,8.7-1.8,13-3c-1.1-4.3-2.5-8.4-3.9-12.6c-3.8,1.4-7.6,2.6-11.5,3.8
		C33.4,384,34.3,387.9,35,391.8z"/>
	<path class="st0" d="M173,361.9c-0.6,0.2-1.3,0.3-1.9,0.5c1.9,6.1,4.2,12.1,6.8,17.9c5.6,2.4,11.4,4.6,17.3,6.4
		c1.1-4.4,2.5-8.7,4-13c-8.8-3.4-17.4-7.4-25.6-11.8C173.3,361.8,173.2,361.8,173,361.9z"/>
</g>
</svg>
